<svg xmlns="http://www.w3.org/2000/svg" version="1.1" xmlns:xlink="http://www.w3.org/1999/xlink" xmlns:svgjs="http://svgjs.dev/svgjs" width="2000" height="2016" viewBox="0 0 2000 2016"><g transform="matrix(1,0,0,1,1.3936234639990062,0.8177015325961747)"><svg viewBox="0 0 245 247" data-background-color="#faecdc" preserveAspectRatio="xMidYMid meet" height="2016" width="2000" xmlns="http://www.w3.org/2000/svg" xmlns:xlink="http://www.w3.org/1999/xlink"><g id="tight-bounds" transform="matrix(1,0,0,1,-0.1702308030794768,-0.09997365579206985)"><svg viewBox="0 0 245.34094967741936 247.2" height="247.2" width="245.34094967741936"><g><svg viewBox="0 0 245.34094967741936 247.2" height="247.2" width="245.34094967741936"><g><svg viewBox="0 0 245.34094967741936 247.2" height="247.2" width="245.34094967741936"><g id="textblocktransform"><svg viewBox="0 0 245.34094967741936 247.2" height="247.2" width="245.34094967741936" id="textblock"><g><svg viewBox="0 0 245.34094967741936 247.2" height="247.2" width="245.34094967741936"><path d="M244.767 53.02C243.613 27.36 240.326 20.227 240.326 20.227 230.234-6.202 217.639-0.506 206.324 3.292 186.347 3.446 166.451 9.091 146.52 12.119 104.686 12.581 62.495 4.986 20.868 23.717 16.958 29.464-4.057 24.846 0.695 56.304 1.941 69.39 6.486 83.913 6.347 95.922 6.97 98.026 7.835 93.202 8.204 96.23 9.496 104.39 11.607 100.541 13.337 105.365 10.926 118.246 12.656 128.971 14.306 140.21 11.399 143.135 7.674 141.749 6.001 151.449 5.828 158.479 4.894 157.145 3.867 156.837 3.118 156.632 1.607 157.402 1.86 159.608 2.725 167.152-0.988 171.514 1.341 178.904-0.262 186.91 2.449 193.838 2.08 202.511 2.033 204.255 2.287 205.744 2.691 206.154 4.479 208.361 1.872 212.672 2.149 217.342 20.488 249.262 40.384 227.195 59.173 241.872 64.052 231.608 60.384 245.516 62.333 243.36 63.856 240.846 64.963 251.263 66.682 245.362 66.947 243.668 66.543 239.665 67.489 240.435 67.985 240.846 68.423 240.743 68.492 238.382 68.596 234.841 67.685 237.048 67.443 235.201 70.061 225.861 69.415 248.081 71.872 247.158 71.756 244.438 71.041 240.538 72.506 241.051 73.959 237.151 74.006 233.918 75.297 242.693 75.344 244.592 75.574 245.926 75.943 246.85 79.98 237.305 83.994 250.237 88.227 245.926 90.822 241.205 93.314 248.492 95.943 246.696 96.866 245.259 97.8 242.693 98.688 247.004 109.565 247.928 121.157 244.079 131.468 247.158 159.023 241.41 188.469 249.518 217.523 241.923 224.374 238.998 231.491 234.841 238.169 231.506 238.169 231.506 243.579 222.371 243.579 181.316S244.732 145.393 244.905 112.703C245.078 80.013 245.885 78.679 244.732 53.02Z" opacity="1" fill="#e13f2a" data-fill-palette-color="tertiary"></path><g transform="matrix(1,0,0,1,55.76832,26.230666666666668)"><svg width="133.80430967741935" viewBox="2.93 -29.79 20.8 30.28" height="194.73866666666666" data-palette-color="#faecdc"><path d="M23.73-7.67L23.73-7.67Q23.73-12.01 19.04-14.65L19.04-14.65Q18.12-15.14 13.33-17.24L13.33-17.24Q8.98-19.09 7.86-21.04L7.86-21.04Q7.28-22.12 7.28-23.34L7.28-23.34Q7.28-26.61 10.45-27.88L10.45-27.88Q11.82-28.42 13.48-28.42L13.48-28.42Q17.58-28.42 19.73-25.63L19.73-25.63Q21.14-23.73 21.09-21L21.09-21 22.56-21 22.56-29.54Q21.39-29.54 21.19-28.81L21.19-28.81Q21.09-28.47 21.09-27.88L21.09-27.88Q17.63-29.79 13.28-29.79L13.28-29.79Q8.01-29.79 5.08-26.86L5.08-26.86Q3.13-24.8 3.13-22.07L3.13-22.07Q3.13-17.97 7.71-15.38L7.71-15.38Q8.54-14.94 13.28-12.89L13.28-12.89Q17.68-10.94 18.85-8.94L18.85-8.94Q19.48-7.81 19.48-6.49L19.48-6.49Q19.48-3.08 16.16-1.56L16.16-1.56Q14.6-0.88 12.7-0.88L12.7-0.88Q5.22-0.98 4.39-10.01L4.39-10.01 2.93-10.01 2.93 0.1Q4.1 0.1 4.3-0.59L4.3-0.59Q4.39-0.98 4.39-2L4.39-2Q8.15 0.49 12.94 0.49L12.94 0.49Q18.55 0.49 21.63-2.54L21.63-2.54Q23.73-4.69 23.73-7.67Z" opacity="1" transform="matrix(1,0,0,1,0,0)" fill="#faecdc" class="wordmark-text-0" data-fill-palette-color="quaternary" id="text-0"></path></svg></g></svg></g></svg></g></svg></g><g></g></svg></g><defs></defs></svg><rect width="245.34094967741936" height="247.2" fill="none" stroke="none" visibility="hidden"></rect></g></svg></g></svg>