<svg xmlns="http://www.w3.org/2000/svg" version="1.1" xmlns:xlink="http://www.w3.org/1999/xlink" xmlns:svgjs="http://svgjs.dev/svgjs" width="2000" height="1500" viewBox="0 0 2000 1500"><rect width="2000" height="1500" fill="#243837"></rect><g transform="matrix(0.75,0,0,0.75,250,0)"><svg viewBox="0 0 280 280" data-background-color="#243837" preserveAspectRatio="xMidYMid meet" height="2000" width="2000" xmlns="http://www.w3.org/2000/svg" xmlns:xlink="http://www.w3.org/1999/xlink"><g id="tight-bounds" transform="matrix(1,0,0,1,0,0)"><svg viewBox="0 0 280 280" height="280" width="280"><g><svg viewBox="0 0 280 280" height="280" width="280"><g><svg viewBox="0 0 280 280" height="280" width="280"><g id="textblocktransform"><svg viewBox="0 0 280 280" height="280" width="280" id="textblock"><g><svg viewBox="0 0 280 280" height="280" width="280"><g transform="matrix(1,0,0,1,57.50420886156945,57.50420886156945)"><svg viewBox="0 0 164.9915822768611 164.9915822768611" height="164.9915822768611" width="164.9915822768611"><g id="icon-0"><circle r="82" cx="82.49579113843055" cy="82.49579113843055" fill="#fe7833" data-fill-palette-color="accent"></circle><svg xmlns="http://www.w3.org/2000/svg" xmlns:xlink="http://www.w3.org/1999/xlink" version="1.1" x="24.748737341529164" y="24.74873734152917" viewBox="10.1 5.2 78.4 90" enable-background="new 0 0 100 100" xml:space="preserve" height="115.49410759380275" width="115.49410759380275" class="icon-jxe-0" data-fill-palette-color="quaternary" id="jxe-0"><polygon fill-rule="evenodd" clip-rule="evenodd" fill="#243837" points="88.5,28.2 68.4,59.9 68.5,22.3 " data-fill-palette-color="quaternary"></polygon><polygon fill-rule="evenodd" clip-rule="evenodd" fill="#243837" points="49.8,5.2 67.2,38.5 34.7,19.6 " data-fill-palette-color="quaternary"></polygon><polygon fill-rule="evenodd" clip-rule="evenodd" fill="#243837" points="67.8,38.3 67.8,22.3 60.8,24.5 " data-fill-palette-color="quaternary"></polygon><polygon fill-rule="evenodd" clip-rule="evenodd" fill="#243837" points="88.2,73.2 50.6,71.7 83.2,52.9 " data-fill-palette-color="quaternary"></polygon><polygon fill-rule="evenodd" clip-rule="evenodd" fill="#243837" points="69.1,60.3 82.8,52.3 77.4,47.4 " data-fill-palette-color="quaternary"></polygon><polygon fill-rule="evenodd" clip-rule="evenodd" fill="#243837" points="48.7,95.2 31.5,61.9 63.9,80.9 " data-fill-palette-color="quaternary"></polygon><polygon fill-rule="evenodd" clip-rule="evenodd" fill="#243837" points="50.5,72.2 64.2,80.2 65.8,73.1 " data-fill-palette-color="quaternary"></polygon><polygon fill-rule="evenodd" clip-rule="evenodd" fill="#243837" points="10.1,72 30.5,40.4 30.1,78 " data-fill-palette-color="quaternary"></polygon><polygon fill-rule="evenodd" clip-rule="evenodd" fill="#243837" points="30.9,62.1 30.8,78 37.8,75.8 " data-fill-palette-color="quaternary"></polygon><polygon fill-rule="evenodd" clip-rule="evenodd" fill="#243837" points="11,27 48.5,28.9 15.8,47.3 " data-fill-palette-color="quaternary"></polygon><polygon fill-rule="evenodd" clip-rule="evenodd" fill="#243837" points="30,40.1 16.1,47.9 21.5,52.9 " data-fill-palette-color="quaternary"></polygon><polygon fill-rule="evenodd" clip-rule="evenodd" fill="#243837" points="48.2,28.3 34.5,20.2 32.9,27.4 " data-fill-palette-color="quaternary"></polygon></svg></g></svg></g><g id="text-0"><path d="M25.68 110.593l-3.121-4.442c2.932-1.432 4.772-3.24 5.522-5.422v0c0.389-1.133 0.439-2.131 0.15-2.996-0.298-0.861-0.863-1.434-1.695-1.72-0.838-0.288-1.686-0.121-2.544 0.5-0.866 0.625-1.718 1.449-2.555 2.47-0.837 1.022-1.732 2.013-2.685 2.973-0.948 0.969-2.079 1.69-3.393 2.162-1.305 0.467-2.691 0.449-4.156-0.055v0c-2.316-0.796-3.985-2.446-5.006-4.95-1.021-2.504-1.077-5.081-0.167-7.73v0c0.415-1.209 0.946-2.337 1.591-3.381 0.645-1.045 1.394-2.007 2.247-2.887v0l4.725 4.552c-0.809 0.523-1.668 1.326-2.577 2.41-0.902 1.085-1.515 2.098-1.838 3.038-0.321 0.934-0.357 1.77-0.11 2.506 0.256 0.732 0.756 1.226 1.499 1.481 0.749 0.257 1.552 0.075 2.409-0.547 0.86-0.628 1.711-1.451 2.555-2.47 0.837-1.022 1.719-2.025 2.643-3.009 0.933-0.989 2.054-1.72 3.361-2.193 1.312-0.465 2.7-0.446 4.166 0.057v0c2.419 0.831 4.203 2.521 5.352 5.069 1.149 2.548 1.282 5.109 0.398 7.681v0c-0.662 1.926-1.709 3.476-3.143 4.651v0c-1.251 1.037-2.276 1.722-3.077 2.055v0z" fill="#fe7833" data-fill-palette-color="primary"></path><path d="M62.081 56.49c-1.181 1.084-2.494 1.595-3.937 1.534-1.439-0.057-2.742-0.721-3.909-1.992-1.167-1.271-1.597-2.906-1.291-4.904 0.306-1.998 1.292-3.761 2.957-5.29v0l2.041-1.873-0.466-0.509c-0.901-0.982-1.718-1.472-2.452-1.47-0.733 0.012-1.651 0.523-2.752 1.534v0c-0.459 0.421-0.918 1.017-1.377 1.788-0.454 0.766-0.887 1.71-1.299 2.831v0l-3.05-1.581c0.308-1.385 0.861-2.884 1.658-4.498 0.788-1.614 1.58-2.786 2.378-3.518v0c3.146-2.887 6.116-2.807 8.911 0.238v0l5.401 5.885c1.029 1.122 2.529 2.05 4.5 2.786v0l-1.944 4.277c-1.386-0.5-2.547-1.019-3.482-1.557v0c0.422 2.671-0.207 4.778-1.887 6.319zM60.524 52.272v0c0.803-0.737 1.34-1.983 1.611-3.738v0l-1.853-2.019c-1.281 0.735-2.251 1.405-2.909 2.008v0c-1.266 1.162-1.385 2.304-0.355 3.426v0c0.535 0.583 1.125 0.901 1.769 0.952 0.639 0.056 1.218-0.154 1.737-0.629z" fill="#fe7833" data-fill-palette-color="primary"></path><path d="M116.965 16.517c-0.46-1.824-0.923-2.998-1.39-3.522-0.467-0.524-1.281-0.64-2.442-0.348-1.161 0.293-2.364 1.084-3.61 2.375v0l0.729 2.893 2.774 9.182-5.047 2.318-1.947-9.725c-0.994-3.503-2.08-6.593-3.257-9.269v0l4.523-2.238c0.569 1.482 1.075 2.939 1.519 4.369v0c0.261-0.624 0.58-1.256 0.957-1.895 0.368-0.644 1.012-1.424 1.933-2.34 0.912-0.921 1.969-1.532 3.169-1.834 1.201-0.303 2.326-0.087 3.376 0.646 1.057 0.732 1.787 1.901 2.193 3.508v0l0.879 4.489 2.824 9.378-5.086 2.328z" fill="#fe7833" data-fill-palette-color="primary"></path><path d="M178.67 25.742v0c-2.753 2.011-4.876 2.812-6.371 2.404v0c-1.86-0.509-3.179-1.687-3.958-3.534-0.778-1.847-0.841-3.965-0.187-6.354v0c0.896-3.276 2.566-5.79 5.008-7.543 2.438-1.76 4.983-2.278 7.633-1.553v0l2.117 0.916 0.203-0.744 2.037-9.334 5.662 0.496-6.047 20.074-0.945 3.456c-0.43 1.573-0.53 3.489-0.299 5.748v0l-4.733 0.61c-0.327-1.78-0.367-3.327-0.12-4.642zM173.116 17.426c-0.459 1.677-0.507 3.071-0.144 4.18 0.355 1.114 1.116 1.831 2.285 2.151 1.168 0.319 2.512 0.178 4.03-0.424v0l2.321-8.488c-1.492-0.752-2.616-1.231-3.374-1.438v0c-1.181-0.323-2.213-0.153-3.096 0.511-0.888 0.655-1.562 1.825-2.022 3.508z" fill="#fe7833" data-fill-palette-color="primary"></path><path d="M232.885 38.339v0l4.335 2.584c-1.252 1.7-2.488 3.263-3.707 4.69v0c4.428-1.117 7.436-0.934 9.024 0.547v0l-4.667 4.349c-1.153-1.075-2.16-1.82-3.022-2.236-0.857-0.411-1.923-0.632-3.197-0.664v0l-1.004 1.077-6.208 7.311-4.686-2.982 7.113-6.912c2.404-2.736 4.41-5.324 6.019-7.764z" fill="#fe7833" data-fill-palette-color="primary"></path><path d="M258.389 92.072c3.276-1.168 6.367-1.272 9.274-0.311 2.911 0.952 4.788 2.61 5.631 4.974 0.845 2.371 0.735 4.49-0.33 6.357-1.066 1.867-2.867 3.253-5.403 4.157v0c-3.378 1.204-6.492 1.356-9.342 0.454-2.844-0.904-4.727-2.65-5.649-5.238v0c-0.759-2.129-0.588-4.176 0.514-6.142 1.102-1.966 2.87-3.383 5.305-4.251zM264.029 103.659v0c3.716-1.325 5.121-3.256 4.217-5.792v0c-0.941-2.638-3.154-3.336-6.641-2.093v0c-1.816 0.648-3.105 1.527-3.864 2.639-0.756 1.103-0.917 2.263-0.483 3.48 0.434 1.217 1.228 1.972 2.38 2.265 1.162 0.297 2.625 0.131 4.391-0.499z" fill="#fe7833" data-fill-palette-color="primary"></path><path d="M11.196 142.107c0-1.997 1.619-3.616 3.617-3.616 1.997 0 3.616 1.619 3.616 3.616 0 1.997-1.619 3.616-3.616 3.617-1.997 0-3.616-1.619-3.617-3.617z" fill="#fe7833" data-fill-palette-color="primary"></path><path d="M266.963 142.107c0-1.997 1.619-3.616 3.616-3.616 1.997 0 3.616 1.619 3.616 3.616 0 1.997-1.619 3.616-3.616 3.617-1.997 0-3.616-1.619-3.616-3.617z" fill="#fe7833" data-fill-palette-color="primary"></path></g><g id="text-1"><path d="M11.977 178.46l5.789 1.704c-1.565 3.271-1.922 6.116-1.069 8.534v0c0.441 1.251 1.086 2.153 1.934 2.708 0.846 0.548 1.732 0.659 2.658 0.333 0.925-0.326 1.549-1.059 1.871-2.199 0.316-1.138 0.488-2.439 0.517-3.906 0.028-1.466 0.123-2.946 0.286-4.438 0.16-1.499 0.647-2.904 1.461-4.218 0.816-1.307 2.038-2.247 3.665-2.821v0c2.559-0.902 5.146-0.617 7.761 0.858 2.617 1.48 4.442 3.685 5.475 6.614v0c0.473 1.34 0.789 2.685 0.949 4.034 0.154 1.352 0.166 2.707 0.035 4.067v0l-7.253-0.703c0.344-1.018 0.538-2.31 0.581-3.875 0.035-1.569-0.131-2.874-0.498-3.914-0.365-1.034-0.909-1.785-1.635-2.254-0.723-0.463-1.496-0.549-2.318-0.258-0.823 0.29-1.396 1.005-1.719 2.145-0.319 1.131-0.492 2.43-0.52 3.896-0.028 1.466-0.104 2.95-0.228 4.45-0.13 1.502-0.602 2.91-1.416 4.223-0.82 1.315-2.041 2.259-3.662 2.831v0c-2.674 0.943-5.392 0.7-8.156-0.729-2.755-1.425-4.635-3.56-5.639-6.405v0c-0.754-2.138-0.909-4.214-0.464-6.229v0c0.37-1.759 0.79-3.059 1.261-3.9v0z" fill="#fe7833" data-fill-palette-color="primary"></path><path d="M47.348 244.492c-1.317-1.197-2.016-2.595-2.098-4.196-0.072-1.601 0.536-3.11 1.823-4.528 1.288-1.417 3.051-2.055 5.29-1.913 2.238 0.132 4.287 1.042 6.145 2.73v0l2.276 2.068 0.519-0.571c0.992-1.092 1.449-2.043 1.372-2.854-0.082-0.806-0.739-1.768-1.971-2.887v0c-0.511-0.464-1.217-0.909-2.119-1.335-0.892-0.427-1.977-0.813-3.253-1.159v0l1.426-3.531c1.571 0.202 3.286 0.659 5.145 1.369 1.864 0.715 3.242 1.478 4.133 2.288v0c3.511 3.189 3.724 6.482 0.639 9.877v0l-5.964 6.566c-1.137 1.252-2.016 3.004-2.636 5.256v0l-4.919-1.725c0.413-1.581 0.871-2.916 1.375-4.003v0c-2.915 0.734-5.31 0.25-7.183-1.452zM51.858 242.35v0c0.896 0.814 2.329 1.28 4.299 1.396v0l2.04-2.246c-0.941-1.339-1.782-2.345-2.523-3.019v0c-1.407-1.278-2.68-1.292-3.817-0.039v0c-0.587 0.646-0.878 1.328-0.871 2.046 0.001 0.714 0.292 1.334 0.872 1.862z" fill="#fe7833" data-fill-palette-color="primary"></path><path d="M117.649 268.408c0.504-2.015 0.667-3.404 0.487-4.167-0.187-0.758-0.924-1.298-2.21-1.62-1.287-0.322-2.878-0.176-4.776 0.438v0l-0.8 3.2-2.098 10.439-6.164-0.37 3.201-10.54c0.864-3.955 1.42-7.547 1.67-10.776v0l5.593 0.185c-0.213 1.746-0.479 3.437-0.798 5.073v0c0.588-0.481 1.232-0.937 1.932-1.369 0.694-0.433 1.731-0.857 3.112-1.272 1.38-0.415 2.736-0.456 4.069-0.123 1.333 0.333 2.322 1.132 2.968 2.396 0.651 1.272 0.754 2.8 0.307 4.586v0l-1.494 4.846-2.155 10.666-6.201-0.389z" fill="#fe7833" data-fill-palette-color="primary"></path><path d="M182.828 271.708v0c-1.49 3.474-3.064 5.438-4.721 5.891v0c-2.069 0.567-3.997 0.186-5.785-1.141-1.779-1.323-3.032-3.309-3.757-5.958v0c-0.997-3.641-0.828-6.992 0.509-10.052 1.338-3.054 3.476-4.982 6.412-5.787v0l2.544-0.318-0.228-0.832-3.328-10.074 5.683-2.725 5.578 22.591 1.054 3.847c0.477 1.742 1.464 3.629 2.96 5.661v0l-4.179 3.26c-1.321-1.518-2.235-2.973-2.742-4.363zM172.827 266.891c0.509 1.86 1.251 3.221 2.224 4.085 0.971 0.856 2.103 1.108 3.395 0.753 1.299-0.356 2.503-1.247 3.614-2.673v0l-2.585-9.437c-1.844 0.133-3.186 0.315-4.028 0.546v0c-1.312 0.359-2.202 1.105-2.671 2.236-0.477 1.127-0.46 2.623 0.051 4.49z" fill="#fe7833" data-fill-palette-color="primary"></path><path d="M219.062 232.465v0l3.217-4.579c1.779 1.516 3.409 3.008 4.889 4.479v0c-0.873-4.99-0.423-8.305 1.35-9.945v0l4.431 5.524c-1.287 1.19-2.195 2.246-2.723 3.169-0.529 0.913-0.861 2.073-0.998 3.48v0l1.103 1.192 7.586 7.471-3.684 4.956-7.067-8.45c-2.837-2.888-5.538-5.32-8.104-7.297z" fill="#fe7833" data-fill-palette-color="primary"></path><path d="M261.687 195.498c-3.627-1.332-6.341-3.439-8.144-6.322-1.805-2.876-2.226-5.626-1.263-8.248 0.963-2.623 2.56-4.35 4.79-5.182 2.239-0.836 4.762-0.738 7.569 0.293v0c3.735 1.372 6.497 3.457 8.288 6.255 1.786 2.79 2.154 5.617 1.101 8.482v0c-0.863 2.35-2.464 3.971-4.803 4.863-2.339 0.892-4.852 0.845-7.538-0.141zM265.103 181.605v0c-4.109-1.509-6.679-0.86-7.71 1.947v0c-1.073 2.922 0.315 5.089 4.163 6.503v0c2.013 0.74 3.74 0.905 5.181 0.497 1.431-0.404 2.394-1.279 2.889-2.626 0.495-1.346 0.351-2.556-0.43-3.629-0.779-1.079-2.143-1.976-4.093-2.692z" fill="#fe7833" data-fill-palette-color="primary"></path></g></svg></g></svg></g></svg></g></svg></g><defs></defs></svg><rect width="280" height="280" fill="none" stroke="none" visibility="hidden"></rect></g></svg></g></svg>